<?xml version="1.0" encoding="UTF-8" ?>
<!DOCTYPE svg PUBLIC "-//W3C//DTD SVG 1.1//EN" "http://www.w3.org/Graphics/SVG/1.1/DTD/svg11.dtd">
<svg width="512pt" height="512pt" viewBox="0 0 512 512" version="1.1" xmlns="http://www.w3.org/2000/svg">
<g id="#000000ff">
<path fill="#000000" stroke="#000000" stroke-width="0.09375" opacity="1.00" d=" M 78.04 0.00 L 153.80 0.00 C 161.03 1.04 167.06 7.49 166.97 14.90 C 167.05 28.60 166.97 42.30 167.01 56.00 C 178.34 56.00 189.67 56.01 201.00 55.99 C 201.02 42.31 200.96 28.63 201.02 14.94 C 200.90 7.58 206.85 1.20 213.97 0.00 L 297.80 0.00 C 305.04 1.04 311.08 7.52 310.97 14.94 C 311.05 28.62 310.97 42.31 311.00 55.99 C 322.33 56.01 333.66 56.00 345.00 56.00 C 345.03 42.29 344.95 28.57 345.02 14.86 C 344.94 7.53 350.88 1.21 357.96 0.00 L 424.55 0.00 C 429.50 0.29 434.30 2.94 436.81 7.28 C 439.22 11.08 439.02 15.74 439.38 20.06 C 442.83 72.36 446.32 124.67 449.78 176.97 C 455.96 177.31 462.27 176.32 468.36 177.68 C 473.86 179.29 478.12 184.32 478.81 190.01 C 490.03 291.64 500.65 393.35 512.00 494.97 L 512.00 498.39 C 511.30 505.39 505.45 511.25 498.46 512.00 L 13.24 512.00 C 6.58 511.10 1.14 505.69 0.00 499.10 L 0.00 494.95 C 0.16 493.33 0.36 491.73 0.51 490.13 C 8.66 390.76 16.80 291.39 24.94 192.03 C 25.01 185.03 30.26 178.42 37.26 177.30 C 42.86 176.66 48.52 177.13 54.15 177.02 C 57.93 122.70 61.33 68.35 65.07 14.03 C 65.36 6.97 71.20 1.14 78.04 0.00 M 94.04 30.00 C 90.77 79.00 87.54 128.00 84.28 177.00 C 101.53 177.02 118.78 176.97 136.02 177.02 C 143.99 176.86 151.10 183.96 150.98 191.92 C 151.03 208.28 150.98 224.64 151.00 241.00 C 165.00 241.00 179.00 241.00 193.00 241.00 C 193.02 224.65 192.97 208.30 193.02 191.95 C 192.84 183.58 200.65 176.37 208.96 176.99 C 240.68 177.02 272.39 176.97 304.11 177.02 C 312.06 176.91 319.13 184.02 318.98 191.97 C 319.03 208.31 318.98 224.66 319.00 241.00 C 333.00 241.00 347.00 241.00 361.00 241.00 C 361.02 224.63 360.97 208.26 361.02 191.89 C 360.90 183.94 368.01 176.86 375.96 177.01 C 390.55 176.97 405.14 177.02 419.72 176.99 C 416.45 128.00 413.23 79.00 409.96 30.00 C 398.30 30.00 386.65 30.00 375.00 30.00 C 375.00 42.00 374.99 53.99 375.01 65.98 C 374.97 69.55 375.33 73.29 373.84 76.64 C 371.70 82.16 365.99 85.98 360.09 85.98 C 338.70 86.02 317.32 86.01 295.93 85.98 C 287.99 86.10 280.89 79.03 281.02 71.08 C 280.97 57.39 281.02 43.70 281.00 30.00 C 264.33 30.00 247.67 30.00 231.00 30.00 C 230.98 43.67 231.03 57.35 230.98 71.02 C 231.13 79.00 224.02 86.12 216.03 85.98 C 196.01 86.03 175.98 85.97 155.96 86.01 C 152.72 86.01 149.34 86.19 146.31 84.83 C 140.81 82.65 136.99 76.96 137.02 71.05 C 136.97 57.37 137.02 43.69 137.00 30.00 C 122.68 30.00 108.36 30.00 94.04 30.00 M 42.51 344.99 C 52.70 345.06 62.89 344.89 73.08 345.07 C 80.67 345.44 87.08 352.38 86.99 359.96 C 87.12 367.56 80.71 374.53 73.09 374.93 C 62.08 375.11 51.07 374.94 40.06 375.00 C 37.11 410.66 34.22 446.33 31.27 481.99 C 77.18 482.01 123.09 481.99 169.00 482.00 C 169.00 457.66 169.00 433.32 169.00 408.98 C 168.46 380.77 182.83 352.91 206.01 336.86 C 222.14 325.40 242.30 319.78 262.04 321.22 C 280.41 322.44 298.31 329.73 312.28 341.72 C 332.09 358.35 343.67 384.13 343.00 409.99 C 343.00 433.99 343.00 457.99 343.00 482.00 C 388.77 482.00 434.53 482.01 480.29 481.99 C 476.42 446.33 472.57 410.67 468.72 375.01 C 456.47 374.97 444.22 375.04 431.97 374.98 C 424.37 375.10 417.49 368.67 417.04 361.10 C 416.28 353.12 422.95 345.43 430.95 345.07 C 442.45 344.90 453.96 345.06 465.47 344.99 C 460.48 299.00 455.52 253.00 450.52 207.00 C 430.68 207.00 410.84 207.00 391.00 207.00 C 390.97 223.35 391.03 239.69 390.98 256.04 C 390.98 261.93 387.21 267.64 381.71 269.81 C 378.67 271.20 375.26 271.01 372.01 271.01 C 349.31 270.97 326.62 271.03 303.92 270.98 C 295.98 271.10 288.89 264.02 289.02 256.07 C 288.97 239.72 289.02 223.36 289.00 207.00 C 267.00 207.00 245.00 207.00 223.00 207.00 C 222.98 223.37 223.03 239.74 222.98 256.11 C 223.08 264.06 215.97 271.13 208.02 270.98 C 184.00 271.01 159.98 271.01 135.96 270.98 C 128.01 271.12 120.89 264.03 121.02 256.07 C 120.97 239.72 121.02 223.36 121.00 207.00 C 98.61 206.99 76.22 207.01 53.83 207.00 C 50.03 252.99 46.28 298.99 42.51 344.99 M 208.15 377.10 C 202.19 386.24 199.00 397.13 199.01 408.04 C 198.98 432.69 199.01 457.35 199.00 482.00 C 213.00 482.00 227.00 482.00 240.99 482.00 C 241.00 439.01 241.01 396.03 240.99 353.04 C 227.59 356.71 215.67 365.40 208.15 377.10 M 271.02 352.95 C 270.98 395.97 271.01 438.98 271.00 482.00 C 285.00 482.00 299.00 482.00 313.00 482.00 C 312.95 456.64 313.10 431.29 312.92 405.94 C 312.46 381.58 294.45 359.23 271.02 352.95 Z" />
<path fill="#000000" stroke="#000000" stroke-width="0.09375" opacity="1.00" d=" M 253.21 97.27 C 260.48 95.72 268.34 100.55 270.33 107.69 C 272.88 115.28 267.99 124.20 260.32 126.32 C 252.49 128.99 243.32 123.67 241.47 115.67 C 239.15 107.63 245.02 98.66 253.21 97.27 Z" />
<path fill="#000000" stroke="#000000" stroke-width="0.09375" opacity="1.00" d=" M 133.23 113.26 C 140.50 111.74 148.34 116.56 150.33 123.70 C 152.88 131.30 147.97 140.23 140.28 142.33 C 132.46 144.98 123.32 139.66 121.48 131.68 C 119.14 123.63 125.03 114.64 133.23 113.26 Z" />
<path fill="#000000" stroke="#000000" stroke-width="0.09375" opacity="1.00" d=" M 341.26 129.26 C 348.54 127.75 356.39 132.59 358.35 139.75 C 360.85 147.32 355.98 156.22 348.33 158.33 C 340.50 161.00 331.33 155.69 329.48 147.70 C 327.14 139.63 333.04 130.63 341.26 129.26 Z" />
<path fill="#000000" stroke="#000000" stroke-width="0.09375" opacity="1.00" d=" M 413.20 281.27 C 420.47 279.73 428.35 284.53 430.33 291.70 C 432.88 299.28 427.99 308.21 420.31 310.32 C 412.48 313.00 403.31 307.66 401.47 299.65 C 399.16 291.62 405.02 282.66 413.20 281.27 Z" />
<path fill="#000000" stroke="#000000" stroke-width="0.09375" opacity="1.00" d=" M 85.18 289.28 C 92.48 287.71 100.38 292.55 102.34 299.75 C 104.86 307.33 99.95 316.23 92.28 318.33 C 84.67 320.90 75.74 315.94 73.64 308.24 C 70.90 300.11 76.79 290.69 85.18 289.28 Z" />
<path fill="#000000" stroke="#000000" stroke-width="0.09375" opacity="1.00" d=" M 117.24 409.26 C 124.51 407.73 132.36 412.56 134.33 419.72 C 136.88 427.32 131.95 436.25 124.26 438.34 C 116.41 440.98 107.26 435.61 105.46 427.60 C 103.18 419.56 109.06 410.63 117.24 409.26 Z" />
<path fill="#000000" stroke="#000000" stroke-width="0.09375" opacity="1.00" d=" M 413.23 417.26 C 420.50 415.73 428.36 420.55 430.33 427.71 C 432.87 435.29 427.99 444.20 420.32 446.32 C 412.48 449.00 403.31 443.66 401.47 435.65 C 399.15 427.61 405.04 418.64 413.23 417.26 Z" />
</g>
</svg>
