<?xml version="1.0" encoding="UTF-8" ?>
<!DOCTYPE svg PUBLIC "-//W3C//DTD SVG 1.1//EN" "http://www.w3.org/Graphics/SVG/1.1/DTD/svg11.dtd">
<svg width="512pt" height="512pt" viewBox="0 0 512 512" version="1.1" xmlns="http://www.w3.org/2000/svg">
<g id="#000000ff">
<path fill="#000000" stroke="#000000" stroke-width="0.09375" opacity="1.00" d=" M 15.05 0.00 L 436.71 0.00 C 436.71 10.03 436.70 20.07 436.72 30.10 C 456.79 30.13 476.86 30.10 496.94 30.12 C 496.95 140.55 496.95 250.98 496.94 361.41 C 476.84 361.48 456.74 361.28 436.64 361.51 C 436.80 411.67 436.67 461.84 436.70 512.00 L 15.05 512.00 C 15.05 341.33 15.06 170.67 15.05 0.00 M 45.18 30.12 C 45.18 180.71 45.18 331.29 45.18 481.88 C 55.21 481.88 65.25 481.88 75.29 481.88 C 75.29 331.29 75.29 180.71 75.29 30.12 C 65.25 30.12 55.21 30.11 45.18 30.12 M 105.40 30.13 C 105.42 180.71 105.41 331.29 105.41 481.87 C 205.80 481.89 306.20 481.89 406.59 481.87 C 406.58 331.29 406.58 180.71 406.59 30.13 C 306.20 30.11 205.80 30.10 105.40 30.13 M 436.61 60.40 C 436.83 70.38 436.65 80.36 436.71 90.35 C 446.75 90.34 456.79 90.37 466.83 90.34 C 466.82 80.30 466.83 70.27 466.82 60.23 C 456.75 60.34 446.67 60.02 436.61 60.40 M 436.70 120.49 C 436.70 130.51 436.74 140.53 436.68 150.55 C 446.73 150.64 456.77 150.56 466.81 150.59 C 466.83 140.55 466.83 130.51 466.81 120.47 C 456.77 120.49 446.74 120.45 436.70 120.49 M 436.71 180.71 C 436.71 190.75 436.70 200.78 436.72 210.82 C 446.75 210.82 456.79 210.83 466.82 210.82 C 466.83 200.79 466.82 190.75 466.82 180.72 C 456.78 180.70 446.75 180.72 436.71 180.71 M 436.71 240.95 C 436.71 250.98 436.70 261.02 436.72 271.05 C 446.75 271.05 456.78 271.07 466.82 271.04 C 466.82 261.01 466.83 250.99 466.82 240.96 C 456.78 240.93 446.75 240.95 436.71 240.95 M 436.72 301.18 C 436.70 311.21 436.71 321.25 436.71 331.29 C 446.75 331.29 456.78 331.29 466.82 331.29 C 466.82 321.25 466.82 311.21 466.82 301.18 C 456.79 301.17 446.75 301.18 436.72 301.18 Z" />
<path fill="#000000" stroke="#000000" stroke-width="0.09375" opacity="1.00" d=" M 150.65 75.25 C 211.42 75.34 272.18 75.26 332.95 75.29 C 342.47 75.39 352.00 75.09 361.51 75.44 C 361.28 85.43 361.47 95.42 361.41 105.41 C 291.14 105.42 220.86 105.41 150.59 105.41 C 150.63 95.36 150.51 85.30 150.65 75.25 Z" />
<path fill="#000000" stroke="#000000" stroke-width="0.09375" opacity="1.00" d=" M 150.59 135.53 C 220.86 135.53 291.14 135.53 361.41 135.53 C 361.42 145.56 361.40 155.59 361.42 165.63 C 291.14 165.67 220.86 165.67 150.58 165.63 C 150.60 155.59 150.58 145.56 150.59 135.53 Z" />
<path fill="#000000" stroke="#000000" stroke-width="0.09375" opacity="1.00" d=" M 240.58 196.76 C 265.55 193.53 291.52 198.30 313.60 210.45 C 340.64 225.15 361.67 250.57 370.86 279.97 C 378.68 304.54 378.26 331.63 369.70 355.96 C 360.58 382.17 342.05 404.94 318.30 419.29 C 296.25 432.77 269.75 438.70 244.05 436.09 C 220.55 433.81 197.85 424.31 179.63 409.30 C 155.70 389.79 139.73 360.79 136.34 330.07 C 133.03 302.09 139.95 273.04 155.67 249.65 C 174.62 220.90 206.38 200.99 240.58 196.76 M 249.90 228.89 C 244.15 234.26 240.61 241.50 237.55 248.64 C 230.73 265.32 227.63 283.29 226.37 301.20 C 246.12 301.21 265.87 301.19 285.62 301.20 C 284.12 280.81 280.45 260.15 271.24 241.72 C 268.07 235.90 264.54 229.56 258.41 226.44 C 255.38 224.90 252.13 226.86 249.90 228.89 M 166.91 301.19 C 176.67 301.20 186.43 301.21 196.19 301.19 C 197.51 280.10 201.13 259.00 208.78 239.23 C 186.83 252.66 171.06 275.76 166.91 301.19 M 303.23 239.22 C 310.83 259.01 314.48 280.10 315.81 301.20 C 325.57 301.20 335.33 301.20 345.10 301.20 C 340.90 275.77 325.18 252.67 303.23 239.22 M 166.92 331.27 C 171.08 356.68 186.81 379.84 208.80 393.20 C 201.06 373.46 197.60 352.31 196.15 331.24 C 186.40 331.31 176.66 331.24 166.92 331.27 M 226.36 331.29 C 227.87 351.52 231.49 372.01 240.54 390.34 C 243.68 396.19 247.18 402.46 253.15 405.82 C 256.13 407.65 259.57 405.83 261.88 403.77 C 266.93 399.22 270.20 393.08 273.06 387.01 C 280.91 369.52 284.14 350.37 285.69 331.38 C 265.92 331.13 246.14 331.31 226.36 331.29 M 315.82 331.26 C 314.42 352.34 310.91 373.46 303.19 393.20 C 325.20 379.85 340.89 356.67 345.08 331.27 C 335.33 331.26 325.57 331.27 315.82 331.26 Z" />
</g>
</svg>
