<?xml version="1.0" encoding="iso-8859-1"?>
<!-- Generator: Adobe Illustrator 19.0.0, SVG Export Plug-In . SVG Version: 6.00 Build 0)  -->
<svg version="1.1" id="Layer_1" xmlns="http://www.w3.org/2000/svg" xmlns:xlink="http://www.w3.org/1999/xlink" x="0px" y="0px"
	 viewBox="0 0 512 512" style="enable-background:new 0 0 512 512;" xml:space="preserve">
<g>
	<g>
		<path d="M495.304,200.348c9.22,0,16.696-7.475,16.696-16.696V116.87c0-6.731-4.04-12.802-10.249-15.401L262.447,1.295
			c-4.124-1.726-8.77-1.726-12.894,0L10.249,101.469C4.04,104.068,0,110.139,0,116.87v66.783c0,9.22,7.475,16.696,16.696,16.696
			h22.261v212.74C16.68,418.165,0,438.121,0,461.913v33.391C0,504.525,7.475,512,16.696,512h478.609
			c9.22,0,16.696-7.475,16.696-16.696v-33.391c0-23.792-16.68-43.748-38.957-48.825v-212.74H495.304z M478.609,461.913v16.696
			H33.391v-16.696c0-9.206,7.49-16.696,16.696-16.696c14.74,0,392.966,0,411.826,0C471.119,445.218,478.609,452.707,478.609,461.913
			z M72.348,411.826V200.348h33.391v211.478H72.348z M139.131,411.826V200.348h66.783v211.478H139.131z M239.304,411.826V200.348
			h33.391v211.478H239.304z M306.087,411.826V200.348h66.783v211.478H306.087z M406.261,411.826V200.348h33.391v211.478H406.261z
			 M33.391,166.957V127.98L256,34.795l222.609,93.185v38.977C469.443,166.957,39.332,166.957,33.391,166.957z"/>
	</g>
</g>
<g>
	<g>
		<circle cx="256" cy="111.305" r="16.696"/>
	</g>
</g>
<g>
</g>
<g>
</g>
<g>
</g>
<g>
</g>
<g>
</g>
<g>
</g>
<g>
</g>
<g>
</g>
<g>
</g>
<g>
</g>
<g>
</g>
<g>
</g>
<g>
</g>
<g>
</g>
<g>
</g>
</svg>
